<?xml version="1.0" standalone="no"?>
<!DOCTYPE svg PUBLIC "-//W3C//DTD SVG 1.1//EN" "http://www.w3.org/Graphics/SVG/1.1/DTD/svg11.dtd">
<svg xmlns="http://www.w3.org/2000/svg">
<metadata>Generated by Fontastic.me</metadata>
<defs>
<font id="adspoticons" horiz-adv-x="512">
<font-face font-family="adspoticons" units-per-em="512" ascent="480" descent="-32"/>
<missing-glyph horiz-adv-x="512" />

<glyph glyph-name="communaute" unicode="&#97;" d="M415 369l12 11 12-11-12-12z m-343-217l12 11 11-11-11-12z m16 303l12 12 11-12-11-11z m412-355l12 11-84 84-11-11-10 32-32 36 12 34 11-11 114 113-12 12-102-102-15 15 33 33-12 11-33-32-76 77 98 98-11 12-111-110 12-12-35-12-33 28-33 9 12 12-85 85-12-12 74-73-16-16-32 33-12-11 33-33-77-77-55 55-12-11 67-67 11 11 10-32 37-40-1-5-12 12-112-113 12-11 100 101 16-16-33-32 12-12 32 33 77-77-107-107 12-12 118 119-11 11 7 2 45-42 33-10-12-12 69-68 11 12-57 56 77 77 33-32 11 11-32 33 15 15z m-241 266l37 11 78-78-11-37-55-55-12 12 25 25-11 11-58-57-11 11 40 41-11 11-41-40-8-8-11 12 48 48-12 11-40-40-11 11 40 41-12 11-25-25-11 12z m-128-109l-28 30-11 37 77 78 38-11 29-24-102-100z m84-114l-78 78 11 37 27 25 12-12-16-16 24-23-8-7 34-35 8 8 23-23 33 32 11-11-44-42z m111-50l-38 11-35 34 7 2 104 100 28-32 12-37z m119 8l12 12 11-12-11-11z"/>
<glyph glyph-name="culture" unicode="&#98;" d="M291 269c2-3 5-4 8-4 1 0 2 0 4 0 0 1 50 26 75 34 5 1 7 6 6 11-2 4-7 7-11 5-26-8-76-33-78-34-4-2-6-8-4-12z m8 98c1 0 2 0 4 1 0 0 50 26 75 33 5 2 7 7 6 11-2 5-7 7-11 6-26-9-76-34-78-35-4-2-6-7-4-11 2-3 5-5 8-5z m204 17c-4 0-8-4-8-9l0-332c0-14-12-26-26-26l-204 0 0 20c12 4 44 14 76 14 75 0 125-16 126-16 2-1 5-1 7 1 3 1 4 4 4 7l0 375c0 4-3 8-7 8 0 0-7 2-18 4-5 1-9-2-10-7-1-4 2-9 7-10 4-1 8-1 11-2l0-357c-20 5-62 14-120 14-37 0-73-12-85-16-10 4-40 16-77 16-59 0-107-9-128-14l0 358c17 4 68 15 128 15 31 0 58-10 68-14l0-336c0-3 2-6 5-8 2-1 6-1 8 0 1 1 86 51 161 76 3 2 6 5 6 9l0 349c0 3-2 6-4 7-2 2-5 2-8 1-68-25-137-68-138-69-4-2-5-7-3-11 3-4 8-6 12-3 1 0 61 38 124 63l0-331c-59-21-119-54-145-68l0 326c0 3-2 6-5 8-2 0-37 18-81 18-77 0-136-17-139-18-3-1-6-4-6-8l0-375c0-3 1-6 4-7 1-1 3-2 5-2 0 0 1 0 2 0 1 1 60 17 134 17 31 0 58-10 68-14l0-20-204 0c-14 0-26 12-26 26l0 332c0 5-4 9-8 9-5 0-9-4-9-9l0-332c0-24 19-43 43-43l426 0c24 0 43 19 43 43l0 332c0 5-4 9-9 9z m-212-64c2-3 5-4 8-4 1 0 2 0 4 1 0 0 50 25 75 33 5 2 7 6 6 11-2 4-7 7-11 6-26-9-76-34-78-35-4-2-6-7-4-12z m0-102c2-3 5-5 8-5 1 0 2 1 4 1 0 1 50 26 75 34 5 1 7 6 6 11-2 4-7 7-11 5-26-8-76-33-78-35-4-2-6-7-4-11z m-84 136c-53 12-113-4-115-4-5-2-8-6-6-11 1-4 4-6 8-6 1 0 1 0 2 0 1 0 58 15 107 4 4-1 9 2 10 6 1 5-2 10-6 11z m0-52c-53 13-113-3-115-4-5-1-8-6-6-10 1-4 4-6 8-6 1 0 1 0 2 0 1 0 58 15 107 4 4-1 9 2 10 6 1 5-2 9-6 10z m84-135c2-3 5-5 8-5 1 0 2 0 4 1 0 0 50 26 75 34 5 1 7 6 6 10-2 5-7 7-11 6-26-8-76-34-78-35-4-2-6-7-4-11z m-84 84c-53 13-113-3-115-4-5-1-8-6-6-10 1-4 4-7 8-7 1 0 1 0 2 1 1 0 58 15 107 4 4-1 9 1 10 6 1 5-2 9-6 10z m0-102c-53 12-113-4-115-4-5-1-8-6-6-11 1-3 4-6 8-6 1 0 1 0 2 0 1 0 58 16 107 4 4-1 9 2 10 7 1 4-2 9-6 10z m0 51c-53 12-113-3-115-4-5-1-8-6-6-10 1-4 4-7 8-7 1 0 1 0 2 0 1 1 58 16 107 4 4-1 9 2 10 7 1 4-2 9-6 10z"/>
<glyph glyph-name="religion-spiritualite" unicode="&#99;" d="M98 175l-61-35c-4-3-5-8-3-12 2-3 5-4 8-4 1 0 3 0 4 1l61 35c4 2 5 7 3 12-3 4-8 5-12 3z m21 81c0 5-3 9-8 9l-102 0c-5 0-9-4-9-9 0-5 4-9 9-9l102 0c5 0 8 4 8 9z m27 173c2-3 5-4 8-4 1 0 3 0 4 1 4 2 5 8 3 12l-21 37c-3 4-8 5-12 3-4-3-5-8-3-12z m-109-57l87-50c1 0 3-1 4-1 3 0 6 2 7 5 3 4 1 9-3 11l-86 50c-4 2-9 1-12-3-2-4-1-9 3-12z m340-46c1-3 4-5 7-5 1 0 3 1 4 1l87 50c4 3 5 8 3 12-3 4-8 5-12 3l-86-50c-4-2-6-7-3-11z m-23 100c1-1 3-1 4-1 3 0 6 1 8 4l21 37c2 4 1 9-3 12-4 2-9 1-12-3l-21-37c-2-4-1-10 3-12z m-10-409c0 0-24 8-39 23-16 16-23 31-23 45l0 154c0 2 0 17 12 17 10 0 13-18 13-18l9-111c0-4 4-8 9-8 5 1 8 5 8 10l-9 111c-2 12-10 33-30 33-23 0-29-22-29-34l0-154c0-19 9-38 28-57 18-18 45-27 46-28 1 0 1 0 2 0 4 0 7 2 8 6 2 4-1 9-5 11z m-126 256c-20 0-28-21-30-33l-9-111c0-5 3-9 8-10 5 0 9 4 9 8l9 111c0 0 3 18 13 18 12 0 12-14 12-17l0-154c0-14-7-29-23-45-15-15-39-23-39-23-4-2-7-7-5-11 1-4 4-6 8-6 1 0 1 0 2 0 1 1 28 10 46 28 19 19 28 38 28 57l0 154c0 12-6 34-29 34z m274-258l-103 77c-5 4-11 18-14 29l-25 171c-2 9-4 18-6 27-15 78-24 125-54 125-18 0-25-8-25-26 0-17 8-124 8-129 0-4 5-8 9-7 5 0 8 4 8 9 0 1-8 111-8 127 0 9 0 9 8 9 16 0 26-54 38-111 1-9 3-18 5-27l26-171c0-3 7-30 20-39l102-77c2-1 4-2 5-2 3 0 6 1 7 3 3 4 2 10-1 12z m-26 110c1-1 3-1 4-1 3 0 6 1 8 4 2 4 1 9-3 12l-61 35c-4 2-9 1-12-3-2-5-1-10 3-12z m37 140l-102 0c-5 0-8-4-8-9 0-5 3-9 8-9l102 0c5 0 9 4 9 9 0 5-4 9-9 9z m-238 238c0 5-4 9-9 9-5 0-9-4-9-9l0-25c0-5 4-9 9-9 5 0 9 4 9 9z m-43-59c-30 0-39-47-54-125-2-9-4-18-6-28l-25-170c-2-11-8-25-14-29l-103-77c-3-2-4-8-1-12 1-2 4-3 7-3 1 0 3 1 5 2l102 76c11 7 19 29 21 40l25 170c2 10 4 19 5 28 12 57 22 111 38 111 8 0 8 0 8-9 0-16-8-126-8-127 0-5 3-9 8-9 4-1 9 3 9 7 0 5 8 112 8 129 0 18-7 26-25 26z"/>
<glyph glyph-name="sport" unicode="&#100;" d="M504 302c-5 6-13 10-20 10l-12 0 0 10c0 16-15 30-33 30l-15 0 0 17c0 9-3 17-10 22-12 12-32 12-44 0-7-5-10-13-10-22l0-81-208 0 0 81c0 9-3 17-10 22-12 12-32 12-44 0-7-5-10-13-10-22l0-17-17 0c-8 0-16-3-22-8-6-5-9-13-9-21l0-11-12 0c-7 0-15-4-20-10-5-6-8-14-8-22l0-47c0-9 3-17 8-23 5-6 13-10 20-10l12 0 0-11c0-8 3-15 9-21 6-5 14-8 22-8l17 0 0-17c0-8 3-16 10-22 6-6 14-9 22-9 8 0 16 3 22 9 7 6 10 14 10 22l0 81 208 0 0-81c0-8 3-16 10-22 6-6 14-9 22-9 8 0 16 3 22 9 7 6 10 14 10 22l0 17 15 0c18 0 33 14 33 31l0 9 12 0c7 0 15 4 20 10 5 6 8 14 8 23l0 47c0 8-3 16-8 22z m-476-86c-3 0-6 2-8 4-2 4-4 8-4 13l0 47c0 4 2 9 4 12 2 3 5 4 8 4l12 0 0-80z m43-40c-4 0-8 2-11 4-3 3-4 6-4 9l0 134c0 4 1 7 4 9 3 3 7 4 11 4l17 0 0-160z m65-33c0-4-2-8-5-10-6-6-16-6-22 0-3 2-5 6-5 10l0 226c0 4 2 8 5 11 3 3 7 4 11 4 4 0 8-1 11-4 3-3 5-7 5-11z m16 97l0 32 208 0 0-32z m256-97c0-4-2-8-5-10-6-6-16-6-22 0-3 2-5 6-5 10l0 226c0 4 2 8 5 11 3 3 7 4 11 4 4 0 8-1 11-4 3-3 5-7 5-11z m48 48c0-8-7-15-17-15l-15 0 0 160 15 0c10 0 17-6 17-14z m40 42c0-5-2-9-4-13-2-2-5-4-8-4l-12 0 0 80 12 0c3 0 6-1 8-4 3-3 4-8 4-12z"/>
<glyph glyph-name="loisirs" unicode="&#101;" d="M447 251c9 1 18-1 27-5 8-4 18-4 26 1 7 5 12 13 12 22l0 118c0 5-5 10-10 10l-118 0c-2 0-4 2-5 3 0 1-1 3 0 6 6 11 8 24 8 37-2 37-33 67-71 69-20 1-39-7-53-20-15-14-23-33-23-53 0-12 3-23 8-33 1-3 0-5 0-6-1-1-3-3-5-3l-118 0c-5 0-10-5-10-10l0-118c0-2-2-4-3-5-1 0-3-1-6 0-11 6-24 8-37 8-37-2-67-33-69-71-1-20 7-39 20-53 14-15 33-23 53-23 12 0 23 3 33 8 3 1 5 0 6 0 1-1 3-3 3-5l0-118c0-5 5-10 10-10l118 0c9 0 17 5 22 12 5 8 5 18 1 26-4 9-6 18-5 27 1 27 23 49 50 50 15 1 29-5 39-15 11-10 16-23 16-38 0-8-1-16-5-24-4-8-4-18 1-26 5-7 13-12 22-12l118 0c5 0 10 5 10 10l0 118c0 9-5 17-12 22-8 5-18 5-26 1-8-4-16-5-24-5-15 0-28 5-38 16-10 10-16 24-15 39 1 27 23 49 50 50z m-50-103c14-15 33-23 53-23 12 0 23 3 33 8 3 1 5 0 6 0 1-1 3-3 3-5l0-108-108 0c-2 0-4 2-5 3 0 1-1 3 0 6 5 10 8 21 8 33 0 20-8 39-23 53-13 13-31 20-50 20-1 0-2 0-3 0-38-1-69-31-71-69 0-13 2-25 8-37 1-3 0-5 0-6-1-1-3-3-5-3l-108 0 0 108c0 9-4 17-12 22-8 5-18 5-26 1-7-4-15-5-24-5-14 0-28 5-38 16-10 10-15 24-15 39 1 27 23 49 50 50 10 1 19-1 27-5 8-4 18-4 26 1 8 5 12 13 12 22l0 108 108 0c9 0 17 4 22 12 5 8 5 18 1 26-4 7-5 15-5 24 0 14 5 28 16 38 10 10 24 15 39 15 27-1 49-23 50-50 1-10-1-19-5-27-4-8-4-18 1-26 5-8 13-12 22-12l108 0 0-108c0-2-2-4-3-5-1 0-3-1-6 0-12 6-24 8-37 8-38-2-68-33-69-71-1-20 6-39 20-53z m-193 211l-41 0c-6 0-10-4-10-10 0-6 4-10 10-10l41 0c5 0 10 4 10 10 0 6-5 10-10 10z m49 0l-12 0c-5 0-10-4-10-10 0-6 5-10 10-10l12 0c5 0 10 4 10 10 0 6-5 10-10 10z"/>
<glyph glyph-name="grid" unicode="&#102;" d="M507 247c0 0 0 1 0 2l0 224c0 20-16 36-36 36l-431 0c-19 0-36-16-36-36l0-433c0-20 17-36 36-36l212 0c1-1 2-1 4-1 1 0 3 0 4 1l211 0c20 0 36 16 36 36l0 204c0 1 0 2 0 3z m-19 226l0-217-223 0 0 234 206 0c9 0 17-7 17-17z m-448 17l207 0 0-234-224 0 0 217c0 10 8 17 17 17z m-17-450l0 197 224 0 0-214-207 0c-9 0-17 7-17 17z m448-17l-206 0 0 214 223 0 0-197c0-10-8-17-17-17z"/>
<glyph glyph-name="activate" unicode="&#103;" d="M434 431c-48 48-111 74-178 74-67 0-130-26-178-74-47-47-74-110-74-177 0-68 27-131 74-178 35-35 78-58 126-68 3-1 6 0 8 1 2 2 4 5 4 8l0 219c0 12-7 18-19 18l-44 0c0 0 0 4 2 6l100 99c1 1 2 1 3 0l99-99c1-1 2-3 2-4 0-1-1-2-1-2l-41 2c-13 0-22-9-22-20l0-220c0-2 1-5 3-7 2-1 4-2 6-2 1 0 1 0 2 0 49 10 93 34 128 69 47 47 73 110 73 178 0 67-26 130-73 177z m-14-342c-29-30-66-51-106-61l-1 208c1 0 2 1 3 1l42-1c8 0 15 4 18 12 3 8 1 18-5 25l-100 99c-8 8-22 8-30 0l-99-99c-7-7-10-18-6-27 3-6 9-10 17-10l44 0 0-207c-40 10-76 31-106 60-44 44-68 102-68 165 0 62 24 120 68 164 44 44 103 68 165 68 62 0 121-24 164-68 44-44 69-102 69-164 0-63-25-121-69-165z"/>
<glyph glyph-name="arrow-left" unicode="&#104;" d="M32 247l298 0c5 0 9 4 9 9 0 5-4 9-9 9l-298 0 74 73c4 4 4 9 0 13-3 3-9 3-12 0l-87-87c-2-2-3-5-2-8-1-3 0-6 2-8l87-87c2-1 4-2 6-2 2 0 4 1 6 2 4 4 4 9 0 13l-74 73z m432 209l-268 0c-24 0-43-19-43-43l0-39c0-5 3-9 8-9 5 0 9 4 9 9l0 39c0 14 11 26 26 26l268 0c14 0 26-12 26-26l0-316c0-14-11-24-26-24l-268 0c-15 0-26 10-26 24l0 43c0 5-4 9-9 9-5 0-8-4-8-9l0-43c0-24 18-41 43-41l268 0c24 0 43 18 43 41l0 316c0 24-19 43-43 43z"/>
<glyph glyph-name="attachment" unicode="&#105;" d="M473 441c-21 21-49 33-78 35-28 1-56-9-77-29l-194-194c-14-14-21-31-21-50 0-19 8-36 21-50 13-13 31-20 49-20 19 0 37 7 50 20l151 152c4 3 4 9 0 12-3 4-9 4-12 0l-152-151c-9-10-23-15-37-15-13 0-27 5-37 15-10 10-15 23-15 37 0 14 5 27 15 37l195 195c17 16 40 25 63 23 25-1 48-12 66-29 37-37 40-96 6-130l-203-204c-26-27-62-41-100-41-38 0-73 14-100 41-55 55-55 144 0 199l138 138c3 3 3 9 0 13-4 3-9 3-13 0l-137-138c-62-62-62-163 0-225 30-30 70-46 112-46 43 0 83 16 112 46l204 204c40 42 37 111-6 155z"/>
<glyph glyph-name="bell" unicode="&#106;" d="M399 171l-286 0c-4 0-8-4-8-8 0-4 4-7 8-7l286 0c4 0 7 3 7 7 0 4-3 8-7 8z m101-59l-21 0 0 34c0 4-3 8-7 8-7 0-13 1-17 5-6 7-6 17-6 17l0 72c0 99-110 112-112 112l-74 0 0 38c22 3 38 22 38 44 0 25-20 46-45 46-25 0-45-21-45-46 0-22 16-41 38-44l0-38-75 0c-1 0-111-13-111-112l0-72c0 0 0-10-7-17-3-4-9-5-16-5-4 0-7-4-7-8l0-34-21 0c-4 0-8-4-8-8l0-72c0-4 4-8 8-8l488 0c4 0 7 4 7 8l0 72c0 4-3 8-7 8z m-275 330c0 17 14 31 31 31 17 0 31-14 31-31 0-17-14-30-31-31 0 0 0 1 0 1 0 0 0-1 0-1-17 1-31 14-31 31z m-177-303c7 2 14 5 19 10 10 11 10 26 10 27l0 72c0 86 94 97 98 98l161 0c4-1 99-12 99-98l0-72c0-1-1-16 10-27 5-5 11-8 19-10l0-27-416 0z m445-100l-474 0 0 58 474 0z"/>
<glyph glyph-name="briefcase" unicode="&#107;" d="M472 403l-135 0c0 1 0 3-1 4l-21 37c-8 13-19 21-31 21l-55 0c-13 0-24-8-32-21-13-24-19-34-20-36-2-2-2-3-2-5l-135 0c-19 0-35-16-35-36l0-87c0 0 0 0 0-1-1-1-1-2 0-4l0-192c0-20 16-36 35-36l432 0c19 0 35 16 35 36l0 284c0 20-16 36-35 36z m-261 34c4 8 11 12 18 12l55 0c6 0 13-4 17-12l20-34-129 0c2 5 8 14 19 34z m-171-49l432 0c11 0 20-9 20-21l0-87-33-41c-3-4-8-7-14-7l-368 0c-5 0-10 2-13 6-27 28-38 39-44 44l0 85c0 12 9 21 20 21z m432-325l-432 0c-11 0-20 9-20 20l0 178c7-7 18-17 32-34 7-6 15-10 25-10l368 0c10 0 20 4 26 12l21 27 0-173c0-11-9-20-20-20z m-211 209c19 0 35 15 35 34 0 19-16 34-35 34-18 0-34-15-34-34 0-19 16-34 34-34z m0 53c11 0 19-9 19-19 0-11-8-19-19-19-10 0-18 8-18 19 0 10 8 19 18 19z"/>
<glyph glyph-name="buildings" unicode="&#108;" d="M207 395l98 0c4 0 7 3 7 7 0 5-3 8-7 8l-98 0c-4 0-7-3-7-8 0-4 3-7 7-7z m259 15l-89 0 0 64c0 19-15 33-33 33l-176 0c-19 0-33-14-33-33l0-64-90 0c-22 0-41-19-41-41l0-323c0-23 19-41 41-41l421 0c23 0 41 18 41 41l0 323c0 22-18 41-41 41z m-316 64c0 10 8 18 18 18l176 0c10 0 18-8 18-18l0-454-45 0 0 76c0 14-9 23-23 23l-69 0c-14 0-22-9-22-23l0-76-53 0 0 454z m152-454l-84 0 0 76c0 6 1 8 7 8l69 0c6 0 8-2 8-8l0-76 0 0z m-283 26l0 323c0 14 12 26 26 26l90 0 0-375-90 0c-14 0-26 11-26 26z m473 0c0-15-11-26-26-26l-89 0 0 375 89 0c15 0 26-12 26-26l0-323z m-431 268l32 0c4 0 8 3 8 7 0 4-4 8-8 8l-32 0c-4 0-8-4-8-8 0-4 4-7 8-7z m390 15l-32 0c-5 0-8-4-8-8 0-4 3-7 8-7l32 0c4 0 8 3 8 7 0 4-4 8-8 8z m-358-98l-32 0c-4 0-8-3-8-8 0-4 4-7 8-7l32 0c4 0 8 3 8 7 0 5-4 8-8 8z m358 0l-32 0c-5 0-8-3-8-8 0-4 3-7 8-7l32 0c4 0 8 3 8 7 0 5-4 8-8 8z m-358-98l-32 0c-4 0-8-3-8-7 0-4 4-8 8-8l32 0c4 0 8 4 8 8 0 4-4 7-8 7z m358 0l-32 0c-5 0-8-3-8-7 0-4 3-8 8-8l32 0c4 0 8 4 8 8 0 4-4 7-8 7z m-244 164l98 0c4 0 7 4 7 8 0 4-3 7-7 7l-98 0c-4 0-7-3-7-7 0-4 3-8 7-8z m0-97l98 0c4 0 7 3 7 7 0 4-3 8-7 8l-98 0c-4 0-7-4-7-8 0-4 3-7 7-7z"/>
<glyph glyph-name="cancel" unicode="&#109;" d="M434 434c-48 47-111 73-178 73-67 0-130-26-178-73-47-48-74-111-74-178 0-67 27-130 74-178 48-47 111-73 178-73 67 0 130 26 178 73 47 48 73 111 73 178 0 67-26 130-73 178z m-344-12c45 44 103 68 166 68 60 0 116-22 159-63l-330-330c-41 43-63 99-63 159 0 63 24 121 68 166z m331-332c-44-44-103-68-165-68-60 0-116 22-159 63l330 330c41-43 63-99 63-159 0-63-24-121-69-166z"/>
<glyph glyph-name="car" unicode="&#110;" d="M230 253l-29 0c-3 0-5-2-5-5 0-3 2-5 5-5l29 0c3 0 5 2 5 5 0 3-2 5-5 5z m57 106c-1 1-2 2-4 2l-82 0c-3 0-5-2-5-5l0-66c0-3 2-5 5-5l126 0c0 0 0 0 0 0 3 0 6 2 6 5 0 1-1 3-2 4z m-81-64l0 56 74 0 37-56z m-46 66l-36 0c-1 0-3 0-4-1l-58-67c-1-1-1-3 0-5 0-2 2-3 4-3l94 0c3 0 6 2 6 5l0 66c0 3-3 5-6 5z m-5-66l-77 0 49 56 28 0z m288 0l-68 0-68 101c-1 2-3 3-5 3l-197 0c-1 0-3-1-4-2l-95-108c-1-1-2-2-2-4l0-110c0-3 3-5 6-5l31 0c3-32 29-57 62-57 32 0 59 25 62 57l192 0c2-32 29-57 61-57 33 0 59 25 62 57l22 0c3 0 5 2 5 5l0 56c0 35-28 64-64 64z m-340-171c-29 0-52 23-52 51 0 29 23 52 52 52 28 0 51-23 51-52 0-28-23-51-51-51z m315 0c-28 0-51 22-51 50 0 0 0 1 0 1 0 1 0 1 0 1 0 28 23 51 51 51 29 0 52-23 52-51 0-1 0-1 0-1 0 0 0 0 0 0 0-28-23-51-52-51z m79 56l-17 0c-3 32-29 57-62 57-32 0-59-25-61-57l-192 0c-3 32-30 57-62 57-33 0-59-25-62-57l-26 0 0 103 93 105 191 0 69-101c1-1 2-2 4-2l71 0c30 0 54-24 54-54z m-394 30c-19 0-35-16-35-35 0-3 3-5 5-5 3 0 6 2 6 5 0 14 11 24 24 24 3 0 5 3 5 6 0 2-2 5-5 5z m345-30c-3 0-6-2-6-5 0-13-10-24-24-24-3 0-5-2-5-5 0-3 2-5 5-5 19 0 35 15 35 34 0 3-2 5-5 5z"/>
<glyph glyph-name="cart" unicode="&#111;" d="M157 173l274-1c11 1 20 8 22 18l54 223c1 7 0 14-4 19-5 6-12 9-20 9l-380 0c0 0 0 0-1 0l-13 55c-1 4-4 6-8 6l-68 0c-5 0-9-4-9-8 0-5 4-9 9-9l61 0 73-296c-22-5-39-25-39-48 0-17 9-32 22-41-13-9-22-24-22-41 0-27 22-49 49-49 28 0 50 22 50 49 0 12-5 24-13 32l214 0c-8-8-13-20-13-32 0-27 22-49 50-49 27 0 49 22 49 49 0 27-22 49-49 49l-288 0c0 0 0 0 0 0-17 0-32 15-32 33 0 17 15 32 32 32z m326 251c3 0 5-1 6-2 1-2 2-3 1-4l-53-224c-1-3-4-5-6-5l-267 1-57 234z m-326-397c-17 0-32 14-32 32 0 18 15 32 32 32 0 0 0 0 0 0 1 0 1 0 1 0 17 0 32-14 32-32 0-18-15-32-33-32z m320 32c0-18-15-32-32-32-18 0-33 14-33 32 0 18 15 32 33 32 17 0 32-14 32-32z"/>
<glyph glyph-name="check-empty" unicode="&#112;" d="M471 509l-431 0c-19 0-36-16-36-36l0-434c0-20 17-36 36-36l431 0c20 0 36 16 36 36l0 434c0 20-16 36-36 36z m18-470c0-9-8-17-18-17l-431 0c-9 0-17 8-17 17l0 434c0 9 8 17 17 17l431 0c10 0 18-8 18-17z"/>
<glyph glyph-name="check-fill" unicode="&#113;" d="M471 509l-431 0c-19 0-36-16-36-36l0-434c0-20 17-36 36-36l431 0c20 0 36 16 36 36l0 434c0 20-16 36-36 36z m0-487l-431 0c-9 0-17 8-17 17l0 434c0 9 8 17 17 17l431 0c3 0 5 0 7-1l-273-332-114 143c-4 4-9 5-14 1-4-3-4-9-1-13l122-152c2-2 4-4 7-4 0 0 0 0 0 0 3 0 6 2 8 4l276 336 0-433c0-9-8-17-18-17z"/>
<glyph glyph-name="cross" unicode="&#114;" d="M434 434c-48 47-111 73-178 73-67 0-130-26-178-73-47-48-74-111-74-178 0-67 27-130 74-178 48-47 111-73 178-73 67 0 130 26 178 73 47 48 73 111 73 178 0 67-26 130-73 178z m-13-344c-44-44-103-68-165-68-63 0-121 24-166 68-44 45-68 103-68 166 0 63 24 121 68 166 45 44 103 68 166 68 62 0 121-24 165-68 45-45 69-103 69-166 0-63-24-121-69-166z m-69 275l-98-98-94 94c-4 4-9 4-13 0-3-3-3-9 0-12l95-95-91-91c-4-3-4-9 0-12 1-2 4-3 6-3 2 0 4 1 6 3l91 91 95-95c2-1 4-2 6-2 2 0 5 1 6 2 4 4 4 9 0 13l-94 94 97 98c4 4 4 9 0 13-3 3-8 3-12 0z"/>
<glyph glyph-name="hat" unicode="&#115;" d="M482 125l0 193c0 1 0 1 0 2 0 0 0 0 0 1-1 0-1 1-1 1 0 0 0 0 0 0-1 1-1 1-2 1l-233 125c-2 1-4 1-5 0l-234-125c-1-1-3-3-3-5 0-2 2-4 3-5l40-21 0-83c0-2 1-4 2-5 1-1 3-1 5-1 1 0 87 16 185-107 0 0 0 0 0 0 0-1 1-1 1-1 1 0 1-1 1-1 1 0 2 0 2 0 1 0 1 0 1 0 0 0 0 0 0 0 1 0 2 0 2 0 0 1 1 1 1 1 0 0 1 1 1 1 0 0 0 0 0 1 1 1 70 118 182 106 2 0 3 0 5 1 1 2 1 3 1 5l0 81 35 18 0-183c-14-3-25-15-25-30 0-17 14-31 31-31 17 0 30 14 30 31 0 15-10 27-25 30z m-424 90l0 71 180-96 0-74c-84 97-157 101-180 99z m367 0c-90 6-152-64-176-96l0 71 176 94z m-182-15l-221 118 221 118 221-118z m234-125c-11 0-20 9-20 20 0 10 9 19 20 19 10 0 19-9 19-19 0-11-9-20-19-20z"/>
<glyph glyph-name="happy" unicode="&#116;" d="M256 507c-139 0-252-112-252-251 0-139 113-251 252-251 139 0 251 112 251 251 0 139-112 251-251 251z m0-485c-129 0-234 105-234 234 0 129 105 234 234 234 129 0 234-105 234-234 0-129-105-234-234-234z m-61 306c0-18-15-34-34-34-19 0-34 16-34 34 0 19 15 35 34 35 19 0 34-16 34-35z m190 0c0-18-15-34-34-34-19 0-34 16-34 34 0 19 15 35 34 35 19 0 34-16 34-35z m13-123l-284 0c-3 0-6-1-8-4-1-2-1-6 0-8 25-61 84-100 150-100 66 0 125 39 150 100 1 2 1 6-1 8-1 3-4 4-7 4z m-142-94c-54 0-103 29-128 76l256 0c-25-47-74-76-128-76z"/>
<glyph glyph-name="hamburger" unicode="&#117;" d="M15 448l482 0c6 0 10 5 10 10 0 6-4 11-10 11l-482 0c-6 0-11-5-11-11 0-5 5-10 11-10z m482-249l-482 0c-6 0-11-5-11-10 0-6 5-11 11-11l482 0c6 0 10 5 10 11 0 5-4 10-10 10z m0 135l-482 0c-6 0-11-5-11-11 0-5 5-10 11-10l482 0c6 0 10 5 10 10 0 6-4 11-10 11z m0-270l-482 0c-6 0-11-5-11-10 0-6 5-11 11-11l482 0c6 0 10 5 10 11 0 5-4 10-10 10z"/>
<glyph glyph-name="alarm" unicode="&#118;" d="M58 447c2 0 4 1 5 2l68 45c5 3 6 9 3 14-3 4-9 5-14 2l-68-45c-4-3-5-9-2-14 2-2 5-4 8-4z m390 2c2-1 4-2 6-2 3 0 6 2 8 4 3 5 2 11-3 14l-67 45c-5 3-11 2-14-2-3-5-2-11 3-14z m-84-269l-109 66 0 165c0 5-5 10-10 10-6 0-10-5-10-10l0-171c0-4 2-7 5-9l114-68c2-1 4-1 5-1 4 0 7 2 9 5 3 5 1 11-4 13z m21-109c57 40 95 107 95 183 0 123-100 224-224 224-124 0-224-101-224-224 0-76 38-143 95-183l-51-54c-4-4-4-10 0-14 2-2 5-3 7-3 3 0 6 1 7 3l54 56c0 0 0 1 0 1 33-19 71-30 112-30 41 0 79 11 112 30 0 0 0-1 0-1l53-56c2-2 5-3 8-3 2 0 4 1 6 3 4 4 5 10 1 14z m-333 183c0 113 91 204 204 204 113 0 204-91 204-204 0-113-91-204-204-204-113 0-204 91-204 204z"/>
<glyph glyph-name="globe" unicode="&#119;" d="M507 256c0 60-21 114-55 158-1 2-2 5-5 6 0 0-1 0-1 0-46 54-114 87-190 87-67 0-130-26-178-73-4-5-8-9-12-14-1 0-1 0-1 0-3-1-4-4-5-6-36-45-56-100-56-158 0-58 20-113 56-158 1-2 2-5 5-6 0 0 0 0 1 0 4-5 8-9 12-14 48-47 111-74 178-74l0 0c76 0 144 34 190 88 0 0 1 0 1 0 3 1 4 4 5 6 34 44 55 98 55 158z m-130-91c7 24 11 52 12 82l100 0c-1-49-18-94-46-131-10 13-30 33-66 49z m-109-142c-1 0-2 0-3 0l0 146c37-1 66-7 90-15-27-77-77-123-87-131z m-24 0c-10 8-60 54-87 131 23 8 53 14 90 15l0-146c-1 0-2 0-3 0z m-175 93c-29 38-45 83-47 131l101 0c0-30 5-58 12-82-36-16-56-36-66-49z m0 280c10-13 30-33 66-49-7-24-12-52-12-82l-101 0c2 48 18 93 47 131z m175 93c1 0 2 0 3 0l0-146c-37 1-66 7-90 15 27 77 77 123 87 131z m24 0c10-8 60-54 87-131-24-8-53-14-90-15l0 146c1 0 2 0 3 0z m175-93c28-37 45-82 46-131l-100 0c-1 30-5 58-12 82 36 16 56 36 66 49z m-71-131l-107 0 0 60c39 1 70 7 95 16 6-23 11-48 12-76z m-125 60l0-60-107 0c1 28 5 53 12 76 25-9 56-15 95-16z m-107-78l107 0 0-60c-39-1-70-7-95-16-7 23-11 48-12 76z m125-60l0 60 107 0c-1-28-6-53-12-76-25 9-56 15-95 16z m166 223c-7-10-25-30-60-45-20 58-53 99-74 121 53-9 100-37 134-76z m-216 76c-21-22-54-63-75-121-35 15-53 35-60 45 4 4 7 8 11 11 34 35 77 57 124 65z m-135-384c7 10 25 30 60 46 21-59 54-100 75-122-47 8-90 30-124 65-4 3-7 7-11 11z m217-76c21 22 54 63 74 121 36-15 53-35 60-45-34-39-81-67-134-76z"/>
<glyph glyph-name="eye" unicode="&#120;" d="M504 263l-121 109c-34 31-79 48-127 48-48 0-93-17-127-48l-122-109c-1-2-3-4-3-7 0-3 2-5 3-7l122-109c34-31 79-48 127-48 48 0 93 17 127 48l121 109c2 2 3 4 3 7 0 3-1 5-3 7z m-133-110c-31-27-72-43-115-43-44 0-84 16-115 43l-114 103 114 103c31 27 71 42 115 42 43 0 84-15 115-42l113-103z m-57 157c-16 14-36 21-58 21-22 0-42-7-58-21-16-15-24-34-24-54 0-20 8-39 24-54 15-14 36-21 58-21 22 0 42 7 58 21 16 15 24 34 24 54 0 20-8 39-24 54z m-13-94c-12-11-28-17-45-17-17 0-34 6-46 17-12 11-18 25-18 40 0 15 6 29 18 40 12 11 29 17 46 17 17 0 33-6 45-17 12-11 19-25 19-40 0-15-7-29-19-40z"/>
<glyph glyph-name="expand" unicode="&#121;" d="M507 17l0 140c0 5-4 10-10 10-5 0-9-5-9-10l0-118-215 214 215 215 0-113c0-5 4-10 9-10 6 0 10 5 10 10l0 140c0 3-1 6-4 8-2 3-5 4-8 4l-140 0c-6 0-10-4-10-9 0-6 4-10 10-10l125 0c-1-1-1-1-2-1l-219-220-220 221 118 0c5 0 10 4 10 10 0 5-5 9-10 9l-140 0c-3 0-6-1-8-4-3-2-5-5-5-8l0-140c0-5 5-10 10-10 6 0 10 5 10 10l0 119 221-221-221-220 0 124c0 5-4 10-10 10-5 0-10-5-10-10l0-140c0-3 2-6 5-8 2-3 5-4 8-4l140 0c5 0 10 4 10 9 0 6-5 10-10 10l-113 0 215 215 215-215-119 0c-6 0-10-4-10-10 0-5 4-9 10-9l140-1c3 0 6 2 8 5 3 2 4 5 4 8z"/>
<glyph glyph-name="envelope" unicode="&#122;" d="M461 479l-410 0c-26 0-47-21-47-47l0-352c0-26 21-47 47-47l410 0c26 0 46 21 46 47l0 352c0 26-20 47-46 47z m-410-17l410 0c16 0 29-13 29-30l0-76-218-122c-11-7-20-7-32 0l-219 122 0 76c0 17 13 30 30 30z m410-412l-410 0c-17 0-30 13-30 30l0 256 210-117c9-5 17-8 26-8 8 0 15 3 23 8l210 117 0-256c0-17-13-30-29-30z"/>
<glyph glyph-name="edit" unicode="&#65;" d="M506 401c0 12-5 23-14 32l-68 68c-7 7-17 11-28 11-7 0-13-2-18-7 0 0-18-18-45-45 0 0 0 0 0 0 0 0 0 0 0 0-8-8-17-17-27-26l-269 0c-17 0-31-14-31-31l0-372c0-17 14-31 31-31l370 0c17 0 31 14 31 31l0 283 54 55c9 9 14 20 14 32z m-250-246c-5-4-10-9-15-12l-30 62 184 181 45-46z m-131 58c1 6 3 12 6 17l64-30 32-65c-3-2-5-3-8-4-40-15-99-37-99-37-5-2-13 2-17 8-3 4-4 8-3 12z m75 3l-60 28c2 2 3 4 5 5 41 42 135 136 193 194l46-46z m221-185c0-8-6-15-14-15l-370 0c-8 0-15 7-15 15l0 372c0 8 7 15 15 15l253 0c-56-56-124-124-157-157-4-5-8-10-11-15-1-1-1-1-2-2 0 0 0 0 0 0-5-8-9-17-11-27l-25-98c-2-9 0-18 6-27 7-9 17-15 27-15 3 0 5 1 8 2 0 0 60 22 99 37 17 6 31 15 43 28l154 154 0-267 0 0z m60 350l-29-30-51 52c0 0 0 0 0 0l0 0-51 51c23 24 39 39 40 40 1 1 3 2 6 2 6 0 13-3 16-6l69-69c5-5 8-12 8-20 0-8-3-15-8-20z"/>
<glyph glyph-name="dot-menu" unicode="&#66;" d="M296 472c0-22-18-39-40-39-22 0-40 17-40 39 0 22 18 40 40 40 22 0 40-18 40-40z m0-216c0-22-18-40-40-40-22 0-40 18-40 40 0 22 18 40 40 40 22 0 40-18 40-40z m0-216c0-22-18-40-40-40-22 0-40 18-40 40 0 22 18 39 40 39 22 0 40-17 40-39z"/>
<glyph glyph-name="dollar" unicode="&#67;" d="M434 434c-48 47-111 73-178 73-67 0-130-26-178-73-47-48-74-111-74-178 0-67 27-130 74-178 48-47 111-73 178-73 67 0 130 26 178 73 47 48 73 111 73 178 0 67-26 130-73 178z m-13-344c-44-44-103-68-165-68-63 0-121 24-166 68-44 45-68 103-68 166 0 63 24 121 68 165 45 45 103 69 166 69 62 0 121-24 165-69 45-44 69-102 69-165 0-63-24-121-69-166z m-93 222c0-5 4-9 9-9 5 0 9 4 9 9 0 33-36 60-81 64l0 22c0 5-4 9-9 9-5 0-9-4-9-9l0-22c-45-4-81-31-81-64 0-34 36-61 81-64l0-94c-36 3-63 22-63 46 0 5-4 9-9 9-5 0-9-4-9-9 0-33 36-60 81-64l0-22c0-5 4-9 9-9 5 0 9 4 9 9l0 22c45 4 81 31 81 64 0 34-36 61-81 64l0 94c35-3 63-23 63-46z m-144 0c0 23 28 43 63 46l0-93c-35 3-63 23-63 47z m144-112c0-23-28-43-63-46l0 93c35-3 63-23 63-47z"/>
<glyph glyph-name="dog" unicode="&#68;" d="M200 295c-15 0-27-12-27-28 0-15 12-27 27-27 16 0 28 12 28 27 0 16-12 28-28 28z m0-42c-8 0-14 6-14 14 0 9 6 15 14 15 9 0 15-6 15-15 0-8-6-14-15-14z m111 42c-15 0-27-12-27-28 0-15 12-27 27-27 16 0 28 12 28 27 0 16-12 28-28 28z m0-42c-8 0-15 6-15 14 0 9 7 15 15 15 9 0 15-6 15-15 0-8-6-14-15-14z m158 80c-32 51-102 110-146 111-61 24-127 3-134 0-44-1-114-60-146-111-25-39-61-112-20-160 33-39 58-53 77-45 24 10 30 55 31 95 19-69 55-166 101-166l48 0c46 0 82 98 101 166 1-33 5-70 20-87 6-7 13-10 22-10 17 0 39 15 66 47 41 48 5 121-20 160z m-374-193c-13-6-35 9-62 41-37 43 2 116 20 145 28 43 88 95 126 104l-64-138c0-1-1-3-1-4l0 0c0 0 0 0 0 0 7-51 7-137-19-148z m161-16c0 0 0 0 0 0 0 0 0 0-1 0-17 0-44 20-44 45 0 7 18 15 45 15 27 0 45-8 45-15 0-25-27-45-45-45z m24-54l-18 0 0 42c25 4 52 28 52 57 0 21-31 28-58 28-27 0-58-7-58-28 0-29 27-53 51-57l0-42-17 0c-47 0-91 155-104 218l67 145c12 3 70 19 122 0l67-145c-13-63-57-218-104-218z m199 111c-30-35-47-42-56-42-5 0-9 2-13 6-21 24-16 111-13 143 0 0 0 0 0 1 0 0 0 1 0 2 0 0 0 0 0 0l-65 139c39-9 99-61 126-104 19-29 58-102 21-145z"/>
<glyph glyph-name="document" unicode="&#69;" d="M466 451l-420 0c-23 0-42-19-42-42l0-308c0-23 19-40 43-40l418 0c24 0 42 18 42 40l0 308c0 23-18 42-41 42z m-445-350l0 308c0 14 12 25 25 25l152 0 0-356-151 0c-15 0-26 10-26 23z m469 0c0-13-10-23-25-23l-250 0 0 356 251 0c13 0 24-11 24-25z m-81 241l-121 0c-5 0-9-3-9-8 0-5 4-9 9-9l121 0c5 0 9 4 9 9 0 5-4 8-9 8z m0-77l-121 0c-5 0-9-3-9-8 0-5 4-9 9-9l121 0c5 0 9 4 9 9 0 5-4 8-9 8z m0-77l-121 0c-5 0-9-4-9-8 0-5 4-9 9-9l121 0c5 0 9 4 9 9 0 4-4 8-9 8z"/>
<glyph glyph-name="heal" unicode="&#70;" d="M484 158l-23 0c0 1 0 2 0 3l0 40c0 3-2 6-5 6-14 0-54 13-82 31-1 1-2 1-3 1-32 0-70-9-85-28-3 3-6 6-8 9-26 31-56 65-106 91-9 6-23 12-39 20-6 3-8 9-7 13 1 5 5 10 12 10 13 0 24 11 24 24l0 10c0 13-11 24-24 24l-110 0c-13 0-24-11-24-24l0-14c0-18 3-35 8-49 1-2 2-4 4-5 0-1 0-2 1-3 19-20 30-125 30-210 0-3 3-6 6-6l43 0c3 0 5 3 5 6 0 80 29 111 72 132 1 1 1 1 2 2 33-23 55-50 75-74 29-36 54-67 102-67l132 0c13 0 23 11 23 24l0 10c0 13-10 24-23 24z m-115 70c26-17 62-30 81-33l0-34c0-1 0-2 0-3l-77 0c-35 0-57 19-80 44 12 17 47 25 76 26z m-279-115l-31 0c-1 60-7 153-24 195 27-11 83-35 114-51 5-3 10-6 15-9-38-20-73-51-74-135z m406 11c0-7-6-12-12-12l-132 0c-42 0-65 27-93 62-26 31-54 66-105 93-36 19-104 47-124 56-3 1-6 3-7 6-4 13-7 29-7 45l0 14c0 7 5 12 12 12l110 0c7 0 12-5 12-12l0-10c0-7-5-13-12-13-11 0-20-7-23-18-2-11 3-22 13-27 16-7 29-14 39-19 48-25 77-59 102-88 30-36 56-66 104-66l111 0c6 0 12-6 12-13z"/>
<glyph glyph-name="heart" unicode="&#71;" d="M381 476c-57 0-106-32-125-77-19 45-68 77-126 77-78 0-126-68-126-134 0-160 238-299 248-305 1-1 2-1 4-1 1 0 3 0 4 1 10 6 247 145 247 305 0 66-47 134-126 134z m-125-422c-32 20-235 149-235 288 0 58 41 117 109 117 57 0 118-38 118-101 0-5 3-8 8-8 5 0 8 3 8 8 0 63 61 101 117 101 69 0 110-59 110-117 0-139-203-268-235-288z"/>
<glyph glyph-name="hearts" unicode="&#72;" d="M424 342c-37 0-69-21-82-50-4 10-11 19-20 27 9 18 13 36 13 53 0 43-31 88-83 88-38 0-69-21-82-50-13 29-45 50-83 50-52 0-83-45-83-88 0-105 156-197 163-201 1 0 2-1 3-1 1 0 2 1 3 1 0 0 9 6 24 16 42-75 137-131 142-134 1 0 2-1 3-1 1 0 2 1 3 1 7 4 162 95 162 200 0 44-31 89-83 89z m-254-159c-22 14-154 98-154 189 0 37 27 76 71 76 37 0 77-26 77-66 0-4 2-6 6-6 3 0 6 2 6 6 0 40 39 66 76 66 44 0 71-39 71-76 0-15-4-30-11-46-14 10-32 16-52 16-52 0-83-45-83-89 0-19 5-38 14-56-10-6-17-11-21-14z m172-118c-22 14-153 98-153 188 0 38 27 77 71 77 37 0 76-26 76-66 0-4 3-6 6-6 4 0 6 2 6 6 0 40 40 66 76 66 45 0 71-39 71-77 0-90-131-174-153-188z"/>
<glyph glyph-name="home" unicode="&#73;" d="M476 305l-198 198c-12 12-32 12-44 0l-198-198c-9-9-12-22-7-34 5-12 16-19 28-19 8 0 14-6 14-13l0-208c0-17 14-31 31-31l56 0c17 0 31 14 31 31l0 90c0 7 6 13 13 13l91 0c7 0 13-6 13-13l0-90c0-17 14-31 31-31l56 0c17 0 31 14 31 31l0 208c0 7 6 13 14 13l17 0c12 0 23 7 28 19 5 12 2 25-7 34z m-9-27c-2-5-7-9-12-9l-17 0c-17 0-31-13-31-30l0-208c0-8-6-14-14-14l-56 0c-8 0-14 6-14 14l0 90c0 17-13 31-30 31l-91 0c-17 0-30-14-30-31l0-90c0-8-6-14-14-14l-56 0c-8 0-14 6-14 14l0 208c0 17-14 30-31 30-5 0-10 4-12 9-2 5-1 10 3 14l198 199c5 5 14 5 19 0l199-199c4-4 5-9 3-14z"/>
<glyph glyph-name="left-arrow" unicode="&#74;" d="M475 365l-182 0c-9 0-17 8-17 17l0 80c0 18-14 33-33 33-8 0-16-3-23-9l-206-207c-13-13-13-33 0-46l206-207c7-6 15-9 23-9 19 0 33 14 33 33l0 80c0 9 8 17 17 17l182 0c18 0 32 14 32 33l0 152c0 19-14 33-32 33z m16-185c0-10-7-17-16-17l-182 0c-18 0-33-15-33-33l0-80c0-11-8-17-17-17-3 0-7 1-11 5l-206 206c-7 7-7 17 0 24l206 206c4 4 8 5 11 5 9 0 17-6 17-17l0-80c0-18 15-33 33-33l182 0c9 0 16-8 16-17l0-152z"/>
<glyph glyph-name="phone" unicode="&#75;" d="M434 434c-48 47-111 74-178 74-67 0-130-27-178-74-47-48-74-111-74-178 0-67 27-130 74-178 48-47 111-74 178-74 67 0 130 27 178 74 47 48 73 111 73 178 0 67-26 130-73 178z m-13-344c-44-44-103-68-165-68-63 0-121 24-166 68-44 45-68 103-68 166 0 63 24 121 68 166 45 44 103 68 166 68 62 0 121-24 165-68 45-45 69-103 69-166 0-63-24-121-69-166z m-57 118l-10 6c-6 3-13 7-19 10-1 1-2 1-3 2-4 3-9 7-16 7-9 0-17-9-24-19-3-3-8-9-10-11-2 1-5 3-7 4l-2 1c-29 16-49 36-65 65l-1 2c-1 2-3 5-4 7 2 2 8 7 11 10 10 7 19 15 19 24 0 7-4 12-7 17-1 1-1 1-2 2-3 6-7 13-10 19l-6 10c-3 7-7 14-13 16-2 1-5 1-6 1-7 0-20-3-27-6-11-5-17-16-21-24-7-12-10-23-10-35 0-14 5-27 10-40l2-6c4-11 9-21 14-30 19-30 53-64 82-82 10-6 20-11 31-15l6-2c13-5 26-10 40-10 12 0 23 3 35 10 8 4 19 10 24 21 3 7 6 20 6 27 0 1 0 4-1 6-2 6-9 10-16 13z m-5-39c-2-5-11-10-16-13-10-5-18-7-27-7-11 0-22 4-34 8l-6 2c-10 4-19 8-27 13-27 17-60 50-77 77-5 8-9 17-13 27l-2 6c-4 12-9 23-9 34 0 9 3 17 8 27 3 5 8 14 13 16 5 2 14 4 20 4 1-1 3-5 3-7l6-11c4-6 7-12 11-19 1-1 2-2 3-4 1-1 3-5 4-5-1-3-9-8-13-12-9-7-17-14-17-22 0-7 3-12 6-17l1-2c18-31 40-53 71-71l2-1c5-3 10-6 16-6 9 0 16 8 23 17 4 5 9 12 11 13 1-1 5-3 6-4 2-1 3-2 4-3 7-3 13-7 19-10l11-6c2-1 6-3 7-4 0-5-2-15-4-20z"/>
<glyph glyph-name="play" unicode="&#76;" d="M459 286l-371 221c-5 3-11 5-18 5-19 0-34-16-34-35l0-442c0-19 15-35 34-35 7 0 13 2 18 5l371 221c11 7 17 18 17 30 0 12-6 23-17 30z m-10-43l-371-222c-2-1-5-2-8-2-7 0-15 6-15 16l0 442c0 10 8 16 15 16 3 0 6-1 8-2l371-222c5-2 8-7 8-13 0-6-3-11-8-13z"/>
<glyph glyph-name="recyclebin" unicode="&#77;" d="M465 451l-141 0c-4 34-33 61-68 61-35 0-65-27-69-61l-140 0c-12 0-22-10-22-22l0-62c0-12 10-22 22-22l9 0c0-1 0-2 0-3l0-320c0-12 10-22 22-22l356 0c12 0 22 10 22 22l0 320c0 1 0 2-1 3l10 0c12 0 22 10 22 22l0 62c0 12-10 22-22 22z m-209 42c25 0 45-18 49-42l-98 0c4 24 24 42 49 42z m181-151l0-320c0-2-2-3-3-3l-356 0c-2 0-3 1-3 3l0 320c0 2 1 3 3 3l356 0c1 0 3-1 3-3z m31 25c0-1-1-3-3-3l-418 0c-2 0-3 2-3 3l0 62c0 2 1 3 3 3l418 0c2 0 3-1 3-3z"/>
<glyph glyph-name="recyclebin-empty" unicode="&#78;" d="M249 181l-65-66c-4-3-4-9 0-13 2-2 4-3 7-3 2 0 4 1 6 3l66 65 68-67c1-2 4-3 6-3 3 0 5 1 7 3 4 3 4 9 0 13l-68 68 70 70c4 4 4 10 0 14-3 3-9 3-13 0l-70-71-68 68c-4 4-10 4-14 0-3-3-3-9 0-13z m216 270l-141 0c-4 34-33 61-68 61-35 0-65-27-69-61l-140 0c-12 0-22-10-22-22l0-62c0-12 10-22 22-22l9 0c0-1 0-2 0-3l0-320c0-12 10-22 22-22l356 0c12 0 22 10 22 22l0 320c0 1 0 2-1 3l10 0c12 0 22 10 22 22l0 62c0 12-10 22-22 22z m-209 42c25 0 45-18 49-42l-98 0c4 24 24 42 49 42z m181-151l0-320c0-2-2-3-3-3l-356 0c-2 0-3 1-3 3l0 320c0 2 1 3 3 3l356 0c1 0 3-1 3-3z m31 25c0-1-1-3-3-3l-418 0c-2 0-3 2-3 3l0 62c0 2 1 3 3 3l418 0c2 0 3-1 3-3z"/>
<glyph glyph-name="search" unicode="&#79;" d="M505 18l-159 159c34 36 53 84 53 134 0 53-21 102-58 139-37 38-87 58-139 58-53 0-103-20-140-58-37-37-58-86-58-139 0-53 21-102 58-140 37-37 87-57 140-57 49 0 96 18 132 51l159-159c2-1 4-2 6-2 2 0 4 1 6 2 3 3 3 9 0 12z m-431 165c-34 34-53 80-53 128 0 48 19 94 53 128 34 34 79 53 128 53 48 0 93-19 127-53 34-34 53-80 53-128 0-48-19-94-53-128-34-34-79-53-127-53-49 0-94 19-128 53z"/>
<glyph glyph-name="settings" unicode="&#80;" d="M475 312l-30 0c-6 0-12 4-14 10l-6 17c-1 5 0 11 4 15l20 20c13 13 13 33 0 46l-29 29c-12 12-34 12-46 0l-20-20c-4-4-10-5-15-4l-17 6c-6 2-11 8-11 14l0 30c0 18-14 32-32 32l-47 0c-17 0-32-14-32-32l0-30c0-6-4-12-10-14l-17-6c-5-1-11 0-15 4l-21 20c-6 6-14 10-22 10-9 0-17-4-23-10l-29-29c-6-6-10-14-10-23 0-8 4-17 10-23l20-20c4-4 5-10 3-15l-5-17c-2-6-8-10-15-10l-30 0c-17 0-32-15-32-33l0-46c0-18 15-33 32-33l30 0c7 0 13-4 15-10l5-17c2-5 1-11-3-15l-20-20c-6-7-10-15-10-23 0-9 4-17 10-23l29-29c12-12 33-12 45 0l21 20c4 4 10 5 15 4l17-6c6-2 10-8 10-14l0-30c0-18 15-32 32-32l47 0c18 0 32 14 32 32l0 30c0 6 5 12 11 14l17 6c5 1 11 0 15-4l20-20c12-12 34-12 46 0l29 29c6 6 9 14 9 23 0 8-3 16-9 23l-20 20c-4 4-5 10-4 15l6 17c2 6 8 10 14 10l30 0c18 0 32 15 32 33l0 47c0 17-14 32-32 32z m15-80c0-8-6-15-15-15l-30 0c-13 0-26-8-30-21l-6-18c-4-11-1-24 8-32l20-20c3-3 5-7 5-11 0-4-2-8-5-11l-29-29c-6-6-16-6-22 0l-20 20c-8 8-21 11-32 8l-18-6c-13-4-22-17-22-30l0-30c0-9-6-16-15-16l-47 0c-8 0-15 7-15 16l0 30c0 13-8 26-22 30l-17 6c-3 1-6 1-10 1-8 0-16-3-22-9l-21-20c-5-6-15-6-21 0l-29 29c-3 3-5 7-5 11 0 4 2 8 5 11l20 20c8 8 11 21 8 32l-6 18c-5 13-17 21-31 21l-30 0c-8 0-15 7-15 15l0 47c0 9 7 16 15 16l30 0c14 0 26 8 31 21l6 18c3 11 0 24-8 32l-20 20c-3 3-5 7-5 11 0 4 2 8 5 11l29 29c6 6 16 6 21 0l21-20c8-8 21-11 32-8l17 6c14 4 22 17 22 30l0 30c0 9 7 16 15 16l47 0c9 0 15-7 15-16l0-30c0-13 9-26 22-30l17-6c12-3 25 0 33 8l20 20c6 6 16 6 22 0l29-29c6-6 6-16 0-22l-20-20c-9-8-12-21-8-32l6-18c4-13 17-21 30-21l30 0c9 0 15-7 15-16l0-46 0 0z m-247 78c-20-4-37-21-41-41-4-17 0-35 11-48 10-13 26-21 43-21 4 0 8 1 12 2 21 4 37 21 42 41 4 17 0 35-11 48-13 16-35 24-56 19z m50-63c-3-14-14-25-28-29-3 0-6-1-9-1-12 0-23 6-30 15-8 9-10 21-8 33 3 14 15 25 29 29 3 0 6 1 9 1 12 0 23-6 30-15 7-9 10-21 7-33z"/>
<glyph glyph-name="smile" unicode="&#81;" d="M375 137c-27-39-72-62-119-62-48 0-93 23-120 62-2 4-7 4-10 2-4-2-5-7-2-10 30-43 79-69 132-69 52 0 101 26 131 69 3 3 2 8-1 10-4 2-8 2-11-2z m132 107c-1 14-9 28-20 37-10 9-23 13-36 12-30 80-106 136-195 136-1 0-1 0-2 0-5 11-6 21-3 30 6 18 26 27 26 27 3 1 5 6 3 10-1 3-6 5-9 3-1 0-26-12-34-35-4-11-3-23 1-35-82-7-150-61-178-135-28 0-52-22-55-50-3-30 17-56 45-61 18-97 103-171 206-171 102 0 187 74 205 171 28 5 49 31 46 61z m-488-2c2 20 18 34 36 37-5-19-8-38-8-58 0-8 0-15 1-22-18 6-31 23-29 43z m237-215c-107 0-194 87-194 194 0 103 81 188 183 193 21-41 27-73 15-87-3-3-2-8 1-10 1-1 3-2 5-2 2 0 4 1 5 3 16 18 12 52-10 96 105-3 189-88 189-193 0-107-87-194-194-194z m207 172c1 7 1 14 1 22 0 20-3 39-8 58 8-1 15-4 22-9 8-7 13-17 14-28 2-20-10-38-29-43z m-260 82c0-16-13-28-29-28-15 0-28 12-28 28 0 16 13 28 28 28 16 0 29-12 29-28z m157 0c0-16-12-28-28-28-16 0-29 12-29 28 0 16 13 28 29 28 16 0 28-12 28-28z"/>
<glyph glyph-name="sofa" unicode="&#82;" d="M507 256l0 34c0 37-29 66-65 68l0 37c0 32-26 59-59 59l-254 0c-33 0-59-27-59-59l0-37c-37-1-66-31-66-68l0-34c0-78 62-141 139-145l0-45c0-4 3-8 7-8 4 0 7 4 7 8l0 44 198 0 0-44c0-4 3-8 7-8 4 0 7 4 7 8l0 45c77 4 138 67 138 145z m-378 183l254 0c25 0 45-20 45-44l0-38c-32-6-56-34-56-67l0-34c0-6-4-11-10-11l-212 0c-6 0-11 5-11 11l0 34c0 33-23 61-55 67l0 38c0 24 20 44 45 44z m233-314l-212 0c-72 0-131 59-131 131l0 34c0 30 24 53 53 53 29 0 53-23 53-53l0-34c0-14 11-25 25-25l212 0c14 0 25 11 25 25l0 34c0 30 24 53 53 53 29 0 53-23 53-53l0-34c0-72-59-131-131-131z"/>
<glyph glyph-name="star" unicode="&#83;" d="M505 321c-5 13-15 21-29 21l-121 0c-9 0-19 4-20 8l-49 140c-5 14-17 22-31 22-13 0-25-8-30-22l-49-140c-2-5-10-8-16-8l-122 0c-14 0-26-9-31-23-5-14-1-28 10-36l106-82c4-4 6-10 4-16l-47-143c-4-10-2-20 4-28 10-15 31-18 45-7l118 88c5 3 12 3 17 0l117-88c6-5 13-7 19-7 11 0 21 5 27 14 6 8 7 18 4 28l-48 143c-2 6 0 12 5 16l105 82c12 9 17 24 12 38z m-23-24l-105-82c-11-8-15-23-11-35l48-143c2-6 0-10-2-13-4-6-13-8-20-3l-117 88c-6 4-13 6-20 6-7 0-13-2-19-6l-117-88c-7-5-16-3-21 3-1 3-3 7-1 13l47 143c5 12 0 27-10 35l-106 82c-7 5-5 14-4 16 2 5 6 11 14 11l122 0c12 0 28 6 33 20l49 141c2 7 8 9 13 9 5 0 11-2 14-9l49-141c5-15 25-20 37-20l121 0c8 0 11-6 12-9 2-5 1-13-6-18z"/>
<glyph glyph-name="star-circle" unicode="&#84;" d="M434 434c-48 47-111 73-178 73-67 0-130-26-178-73-47-48-74-111-74-178 0-67 27-130 74-178 48-47 111-73 178-73 67 0 130 26 178 73 47 48 73 111 73 178 0 67-26 130-73 178z m-13-344c-44-44-103-68-165-68-63 0-121 24-166 68-44 45-68 103-68 166 0 63 24 121 68 166 45 44 103 68 166 68 62 0 121-24 165-68 45-45 69-103 69-166 0-63-24-121-69-166z m-55 213l-61 0c-2 0-5 1-6 1l-24 71c-3 8-11 14-19 14-9 0-17-6-20-14l-24-70c0-1-2-2-4-2l-61 0c-9 0-17-5-20-14-3-9 0-18 7-23l53-41c0-1 1-2 0-3l-23-72c-2-6-1-13 2-18 7-9 20-11 29-4l59 44c1 1 2 1 3 0l59-44c4-3 8-5 12-5 7 0 13 4 17 9 4 5 5 12 3 18l-24 72c-1 1 0 2 1 3l53 41c7 6 10 15 7 24-3 8-10 13-19 13z m1-23l-53-41c-7-5-9-14-7-23l24-71c0-1 0-2 0-3-1-1-3-2-4-1l-59 45c-4 2-8 4-12 4-5 0-9-2-13-4l-58-44c-2-2-4-1-5 0 0 1 0 2 0 3l24 71c3 8 0 18-7 23l-53 41c-1 1-1 2 0 3 0 1 1 3 3 3l61 0c8 0 17 4 20 13l25 70c1 3 4 3 5 0l25-70c3-10 15-13 22-13l61 0c1 0 2 0 2-2 1-1 1-3-1-4z"/>
<glyph glyph-name="tablet" unicode="&#85;" d="M427 512l-342 0c-17 0-30-13-30-30l0-453c0-16 13-29 30-29l342 0c17 0 30 13 30 29l0 453c0 17-13 30-30 30z m14-483c0-7-6-13-14-13l-342 0c-8 0-14 6-14 13l0 453c0 8 6 14 14 14l342 0c8 0 14-6 14-14l0-453z m-53 444l-264 0c-16 0-30-14-30-30l0-287c0-17 14-30 30-30l264 0c16 0 29 13 29 30l0 287c0 16-13 30-29 30z m14-317c0-8-6-14-14-14l-264 0c-8 0-14 6-14 14l0 287c0 8 6 14 14 14l264 0c8 0 14-6 14-14l0-287z m-145-54c-16 0-29-13-29-29 0-17 13-30 29-30 16 0 29 13 29 30 0 16-13 29-29 29z m0-43c-7 0-14 6-14 14 0 7 7 13 14 13 8 0 14-6 14-13 0-8-6-14-14-14z"/>
<glyph glyph-name="tick" unicode="&#86;" d="M351 341l-123-152-68 62c-4 3-9 2-13-1-3-4-3-9 1-13l74-66c1-1 1-1 1-2 2-1 4-2 6-2 2 0 4 1 6 3 0 0 0 0 1 1 0 0 0 0 0 0 0 0 0 0 0 0l129 159c3 4 2 10-2 13-3 3-9 2-12-2z m83 93c-48 47-111 73-178 73-67 0-130-26-178-73-47-48-74-111-74-178 0-67 27-130 74-178 48-47 111-73 178-73 67 0 130 26 178 73 47 48 73 111 73 178 0 67-26 130-73 178z m-13-343c-44-44-103-69-165-69-63 0-121 24-165 69-45 44-69 103-69 165 0 62 24 121 69 165 44 44 102 69 165 69 62 0 121-25 165-69 44-44 69-103 69-165 0-62-25-121-69-165z"/>
<glyph glyph-name="tv" unicode="&#87;" d="M442 379l-169 0 121 97c3 3 4 7 1 10-2 3-7 4-10 1l-133-106-77 58c-3 2-8 1-10-2-2-3-2-7 2-10l64-48-161 0c-36 0-66-30-66-66l0-224c0-36 30-66 66-66l372 0c36 0 65 30 65 66l0 224c0 36-29 66-65 66z m51-290c0-29-23-52-51-52l-372 0c-28 0-51 23-51 52l0 224c0 28 23 51 51 51l372 0c28 0 51-23 51-51z m-281 241c-141 0-159 0-159-129 0-129 18-129 159-129 140 0 159 0 159 129 0 129-19 129-159 129z m0-244c-139 0-144 0-144 115 0 115 5 115 144 115 139 0 144 0 144-115 0-115-5-115-144-115z m220 185c-15 0-27-11-27-26 0-15 12-27 27-27 15 0 27 12 27 27 0 14-12 26-27 26z m0-39c-7 0-13 6-13 13 0 7 6 12 13 12 7 0 12-5 12-12 0-7-5-13-12-13z m0-48c-15 0-27-12-27-27 0-15 12-27 27-27 15 0 27 12 27 27 0 15-12 27-27 27z m0-39c-7 0-13 5-13 12 0 7 6 12 13 12 7 0 12-5 12-12 0-7-5-12-12-12z"/>
</font>
</defs>
</svg>
